<svg xmlns="http://www.w3.org/2000/svg" viewBox="0 0 452.16 159.59"><defs><style>.cls-1{fill:#2d2c30;}.cls-2{fill:#009639;}</style></defs><g id="Layer_2" data-name="Layer 2"><g id="Layer_1-2" data-name="Layer 1"><polygon class="cls-1" points="198.62 92.03 165.99 39.78 151.13 39.78 151.13 119.5 167.22 119.5 167.22 67.7 199.95 119.5 214.71 119.5 214.71 39.78 198.62 39.78 198.62 92.03"/><path class="cls-1" d="M272.77,67.64a25.57,25.57,0,0,0-9.27-6.08,35.88,35.88,0,0,0-24.3,0,25.62,25.62,0,0,0-9.26,6.08,26.71,26.71,0,0,0-5.88,9.71A38.11,38.11,0,0,0,222,90.25q0,15,7.66,23t21.64,8a32.86,32.86,0,0,0,12.09-2.12,25.16,25.16,0,0,0,9.27-6.14,27.22,27.22,0,0,0,5.88-9.77,38.43,38.43,0,0,0,2-13,39.47,39.47,0,0,0-2-12.9A26.21,26.21,0,0,0,272.77,67.64ZM261.23,104q-3.27,4.8-9.93,4.8t-10-4.75q-3.23-4.74-3.23-13.79t3.28-13.62q3.27-4.68,9.93-4.68t9.93,4.68q3.27,4.69,3.28,13.62T261.23,104Z"/><path class="cls-1" d="M303.18,70.32V60.71H288.09v58.78h15.54V85.77c0-6.49,4.9-9.65,9.62-11a26.94,26.94,0,0,1,9.66-.9V60.71C322.17,60.56,306.82,60.37,303.18,70.32Z"/><path class="cls-1" d="M363.93,107.5a30.82,30.82,0,0,1-3.16.16,7.27,7.27,0,0,1-4.88-1.61c-1.26-1.09-1.89-3.15-1.89-6.2v-26h13.32V60.77H354V45.26H338.47V60.77H327.81V73.88h10.65v26.31q0,10.82,4.6,15.4t14.15,4.58a46.21,46.21,0,0,0,5.83-.4,51.51,51.51,0,0,0,7.37-1.74l-3.32-11.15A18.9,18.9,0,0,1,363.93,107.5Z"/><path class="cls-1" d="M422.17,65.68a18.27,18.27,0,0,0-7.49-4.63,34.7,34.7,0,0,0-11.32-1.62q-10.87,0-17.31,4.08t-8,13.23l14.21,1.33c.88-4.68,4.4-7,10.53-7a12,12,0,0,1,6.94,2q2.94,2,2.94,7.37v2.9l-7.44.34a87.81,87.81,0,0,0-10.92,1.12,34.93,34.93,0,0,0-9.71,3,18.1,18.1,0,0,0-7,5.92,16.69,16.69,0,0,0-2.67,9.82,18.2,18.2,0,0,0,1.56,7.87,15.09,15.09,0,0,0,4.16,5.42,17.12,17.12,0,0,0,6.1,3.12,26.68,26.68,0,0,0,7.38,1q6.77,0,11-2.46a30.35,30.35,0,0,0,7.72-6.36v7.37h14.64V82.65A33.87,33.87,0,0,0,426.28,73,18.11,18.11,0,0,0,422.17,65.68Zm-9.6,30.82a11.57,11.57,0,0,1-4.77,9.93,15.93,15.93,0,0,1-9.76,2.8,8.36,8.36,0,0,1-5.55-1.68,5.66,5.66,0,0,1-2-4.57,10.35,10.35,0,0,1,.55-3.47,5.88,5.88,0,0,1,2.17-2.73,13.82,13.82,0,0,1,4.61-2,38.67,38.67,0,0,1,7.88-1l6.87-.33h0Z"/><rect class="cls-1" x="436.63" y="39.79" width="15.53" height="79.71"/><path class="cls-2" d="M3.32,6.65A3.33,3.33,0,0,0,0,10V149.61a3.33,3.33,0,1,0,6.65,0V10A3.33,3.33,0,0,0,3.32,6.65Z"/><path class="cls-2" d="M29.92,6.65A3.33,3.33,0,0,0,26.59,10V149.61a3.33,3.33,0,1,0,6.65,0V10A3.33,3.33,0,0,0,29.92,6.65Z"/><path class="cls-2" d="M43.22,26.6a3.33,3.33,0,0,0-3.33,3.33v73.14a3.33,3.33,0,0,0,6.65,0V29.93A3.33,3.33,0,0,0,43.22,26.6Z"/><path class="cls-2" d="M69.81,53.2a3.32,3.32,0,0,0-3.32,3.32v73.14a3.33,3.33,0,1,0,6.65,0V56.52A3.32,3.32,0,0,0,69.81,53.2Z"/><path class="cls-2" d="M56.52,39.9a3.33,3.33,0,0,0-3.33,3.32v73.14a3.33,3.33,0,1,0,6.65,0V43.22A3.32,3.32,0,0,0,56.52,39.9Z"/><path class="cls-2" d="M83.11,6.65A3.33,3.33,0,0,0,79.79,10V149.61a3.33,3.33,0,1,0,6.65,0V10A3.33,3.33,0,0,0,83.11,6.65Z"/><path class="cls-2" d="M109.71,6.65A3.33,3.33,0,0,0,106.39,10V149.61a3.33,3.33,0,1,0,6.65,0V10A3.33,3.33,0,0,0,109.71,6.65Z"/><path class="cls-2" d="M96.41,0a3.32,3.32,0,0,0-3.32,3.32V156.26a3.33,3.33,0,1,0,6.65,0V3.32A3.33,3.33,0,0,0,96.41,0Z"/><path class="cls-2" d="M16.62,0a3.33,3.33,0,0,0-3.33,3.32V156.26a3.33,3.33,0,1,0,6.65,0V3.32A3.32,3.32,0,0,0,16.62,0Z"/></g></g></svg>